<?xml version="1.0" encoding="UTF-8" standalone="no"?>
<!-- Created with Inkscape (http://www.inkscape.org/) -->

<svg
   version="1.1"
   id="svg1"
   width="2058.6667"
   height="2058.6667"
   viewBox="0 0 2058.6667 2058.6667"
   sodipodi:docname="Logo.svg"
   inkscape:version="1.4 (e7c3feb100, 2024-10-09)"
   xmlns:inkscape="http://www.inkscape.org/namespaces/inkscape"
   xmlns:sodipodi="http://sodipodi.sourceforge.net/DTD/sodipodi-0.dtd"
   xmlns="http://www.w3.org/2000/svg"
   xmlns:svg="http://www.w3.org/2000/svg"><defs
     id="defs1" /><sodipodi:namedview
     id="namedview1"
     pagecolor="#505050"
     bordercolor="#ffffff"
     borderopacity="1"
     inkscape:showpageshadow="0"
     inkscape:pageopacity="0"
     inkscape:pagecheckerboard="1"
     inkscape:deskcolor="#505050"
     showgrid="false"
     inkscape:zoom="0.16750352"
     inkscape:cx="841.77335"
     inkscape:cy="1116.3944"
     inkscape:window-width="1280"
     inkscape:window-height="652"
     inkscape:window-x="0"
     inkscape:window-y="0"
     inkscape:window-maximized="1"
     inkscape:current-layer="g1" />
  <g
     inkscape:groupmode="layer"
     inkscape:label="Image"
     id="g1">
    <path
       style="fill:#ecd29e"
       d="M 282.66668,1738.4009 C 214.89085,1666.7415 159.04702,1587.7728 112.61524,1497.9315 L 98.797929,1471.1962 210.67093,1359.3291 c 72.44885,-72.445 112.09919,-111.1849 112.51484,-109.9314 0.35301,1.0646 1.32987,6.4357 2.17079,11.9357 10.35271,67.711 42.96839,145.8115 84.8333,203.1392 20.03016,27.4283 53.51528,63.5758 77.47683,83.637 4.58333,3.8372 8.33333,7.3339 8.33333,7.7703 0,0.4365 -44.55,45.3299 -99,99.7632 l -99.00001,98.9697 z M 1206.6667,503.22388 c -24.923,-7.06032 -63.5411,-13.78918 -101.7105,-17.72216 l -21.0439,-2.16837 191.2967,-192.1479 191.2967,-192.147908 28.4138,14.890398 c 43.4029,22.74546 58.1756,31.43666 97.7472,57.50743 46.8692,30.87861 94.7753,69.09887 138.3762,110.39889 l 18.3762,17.40642 -94.3567,94.36365 -94.3566,94.36366 -2.9212,-15.99662 c -6.0432,-33.09263 -15.0313,-62.84817 -26.7493,-88.55484 -10.013,-21.96621 -17.824,-31.15818 -32.2086,-37.90296 -6.6193,-3.10377 -9.1261,-3.51096 -21.4933,-3.49133 -12.591,0.02 -15.9457,0.60115 -33.3333,5.77455 -55.585,16.53839 -103.8709,41.01683 -144,73.0004 -22.3045,17.77704 -59.329,57.14657 -75.3988,80.17436 -2.164,3.10101 -4.5346,5.59876 -5.2679,5.55055 -0.7334,-0.0482 -6.4334,-1.53241 -12.6667,-3.29822 z"
       id="path8"
       sodipodi:nodetypes="sscssssssscssscccssscccsssssssss" />
    <path
       style="fill:#c59ff5"
       d="m 1483.9922,1946.8534 c -0.02,-8.8101 -2.7884,-69.6483 -4.0436,-88.8533 -5.5375,-84.731 -15.9814,-167.3555 -31.2976,-247.6046 -2.5408,-13.3125 -4.4766,-24.2838 -4.3019,-24.3807 5.2144,-2.8919 31.0393,-20.0089 42.9843,-28.4904 79.9974,-56.802 149.2114,-135.8557 189.2818,-216.191 3.0527,-6.1202 34.1212,-37.8235 187.8088,-191.6459 126.8496,-126.961 184.5801,-183.88346 185.5302,-182.93345 2.0899,2.08976 1.7918,113.11705 -0.3702,137.91265 -4.2138,48.3255 -10.4384,92.9629 -18.4073,132 -46.4582,227.585 -169.5294,433.2799 -349.4387,584.0342 -51.5969,43.2354 -118.275,87.9216 -178.0713,119.3394 -19.5413,10.2673 -19.6667,10.3107 -19.6745,6.8131 z"
       id="path7"
       sodipodi:nodetypes="sssssssssssss" />
    <path
       style="fill:#7bc2e2"
       d="m 1483.003,1935.3334 c 0.015,-2.9333 0.2878,-3.9763 0.6067,-2.3178 0.319,1.6586 0.3069,4.0586 -0.027,5.3334 -0.3337,1.2747 -0.5946,-0.082 -0.5798,-3.0156 z m -1.4591,-38 c 0,-1.8333 0.3026,-2.5833 0.6725,-1.6667 0.3699,0.9167 0.3699,2.4167 0,3.3334 -0.3699,0.9166 -0.6725,0.1666 -0.6725,-1.6667 z m -1.3333,-25.3333 c 0,-1.8334 0.3026,-2.5834 0.6725,-1.6667 0.3699,0.9167 0.3699,2.4167 0,3.3333 -0.3699,0.9167 -0.6725,0.1667 -0.6725,-1.6666 z m -1.4386,-22.1111 c 0.064,-1.5533 0.3799,-1.8692 0.8055,-0.8056 0.3852,0.9625 0.3378,2.1125 -0.1052,2.5556 -0.4431,0.443 -0.7582,-0.3445 -0.7003,-1.75 z m -1.3333,-17.3334 c 0.064,-1.5532 0.3799,-1.8692 0.8055,-0.8055 0.3852,0.9625 0.3378,2.1125 -0.1053,2.5555 -0.443,0.4431 -0.7581,-0.3444 -0.7002,-1.75 z m -1.3334,-17.3333 c 0.064,-1.5533 0.3799,-1.8692 0.8056,-0.8056 0.3851,0.9625 0.3378,2.1125 -0.1053,2.5556 -0.443,0.443 -0.7582,-0.3445 -0.7003,-1.75 z m -1.3333,-14.6667 c 0.064,-1.5532 0.3799,-1.8692 0.8055,-0.8055 0.3852,0.9625 0.3378,2.1125 -0.1052,2.5555 -0.4431,0.4431 -0.7582,-0.3444 -0.7003,-1.75 z m 91.8947,-310.5555 c 6.9377,-6.9667 12.914,-12.6667 13.2807,-12.6667 0.3667,0 -5.0096,5.7 -11.9473,12.6667 -6.9377,6.9666 -12.914,12.6666 -13.2807,12.6666 -0.3667,0 5.0096,-5.7 11.9473,-12.6666 z m 22.6667,-23.8368 c 0,-0.2769 1.05,-1.3269 2.3333,-2.3333 2.1148,-1.6585 2.1619,-1.6113 0.5034,0.5034 -1.7418,2.221 -2.8367,2.9273 -2.8367,1.8299 z m 94.3553,-140.1632 c 15.1471,-30.3018 31.1156,-76.3774 39.5094,-114.0001 7.6478,-34.2794 11.1158,-62.8086 12.3179,-101.3333 2.5229,-80.8496 -14.1031,-159.90126 -50.2074,-238.72073 l -8.1428,-17.77671 136.5222,-136.52221 136.5222,-136.52221 9.5652,21.22597 c 38.0399,84.4136 63.2333,166.8289 78.1489,255.64922 5.2378,31.19052 10.9613,79.72564 11.6049,98.41036 l 0.2668,7.74368 -185.2313,185.55873 c -101.8772,102.0572 -185.451,185.8726 -185.7196,186.2563 -0.2686,0.3837 1.911,-4.1024 4.8436,-9.969 z"
       id="path6"
       sodipodi:nodetypes="sssssssssssssssssssssssssssssssssssssssssscccssscsss" />
    <path
       style="fill:#f3a77d"
       d="M 91.379538,1453.7637 C 51.776134,1366.4858 23.597279,1268.9829 10.14103,1172.6667 6.8110625,1148.8317 3.1000088,1111.4536 2.3772253,1094.469 L 2.0000001,1085.6046 205.1255,881.46783 c 111.71902,-112.2752 203.58522,-203.85261 204.14712,-203.50534 0.56189,0.34727 1.39297,3.34069 1.84684,6.65205 0.45387,3.31136 4.22721,21.17774 8.3852,39.70307 4.15798,18.52533 8.16191,36.40058 8.89762,39.72277 l 1.33765,6.04035 -8.7014,12.62632 c -4.78576,6.94447 -13.02971,20.12632 -18.31988,29.29298 -68.71876,119.07404 -98.7962,272.45357 -81.9598,417.95277 l 2.00026,17.2862 -111.81082,111.8108 -111.810808,111.8108 z M 743.19273,512.53338 C 720.92974,488.2467 692.0811,463.50843 665.19296,445.64707 L 649.66689,435.33335 865.83347,218.66668 1082,2.0000001 l 8.6667,0.3772252 c 82.7771,3.6029543 192.5456,25.9881457 278.0942,56.7120067 39.9849,14.360125 97.1814,38.668419 96.2854,40.920898 -0.2088,0.5248 -86.1796,87.06424 -191.0462,192.30987 l -190.6667,191.35568 -18,-1.28426 c -22.7942,-1.62632 -93.08644,-0.34258 -119.33336,2.17938 -50.83087,4.88413 -87.55144,11.14723 -129.8049,22.13965 -16.08181,4.18376 -49.95158,14.51526 -59.66907,18.20122 -0.81068,0.3075 -6.81068,-5.26273 -13.33334,-12.37829 z M 1063.75,0.42251464 c 0.9625,-0.38516084 2.1125,-0.33779241 2.5556,0.10526316 0.4431,0.44305557 -0.3444,0.7581872 -1.75,0.7002924 -1.5533,-0.063978 -1.8692,-0.37992039 -0.8056,-0.80555556 z"
       id="path5"
       sodipodi:nodetypes="ssscssssscssscccssscccsssscsssssssss" />
    <path
       style="fill:#a4d894"
       d="m 988.33337,2057.7117 c 2.01667,-0.3055 5.31667,-0.3055 7.33334,0 2.01666,0.3055 0.36666,0.5555 -3.66667,0.5555 -4.03333,0 -5.68333,-0.25 -3.66667,-0.5555 z m 70.68503,0 c 2.0267,-0.3065 5.0267,-0.2983 6.6666,0.018 1.64,0.3165 -0.018,0.5672 -3.685,0.5572 -3.6666,-0.01 -5.0084,-0.269 -2.9816,-0.5754 z m -98.68503,-1.2957 c 1.28333,-0.3354 3.38333,-0.3354 4.66667,0 1.28333,0.3354 0.23333,0.6098 -2.33334,0.6098 -2.56666,0 -3.61666,-0.2744 -2.33333,-0.6098 z m 128.02543,0 c 1.2972,-0.338 3.0972,-0.3158 4,0.049 0.9027,0.3653 -0.1588,0.6419 -2.3588,0.6147 -2.2,-0.027 -2.9385,-0.326 -1.6412,-0.6641 z m -145.33339,-1.3333 c 1.29729,-0.3381 3.09729,-0.3158 4,0.049 0.90271,0.3652 -0.15871,0.6418 -2.35871,0.6146 -2.2,-0.027 -2.93858,-0.3259 -1.64129,-0.664 z m 163.99999,0 c 1.2973,-0.3381 3.0973,-0.3158 4,0.049 0.9027,0.3652 -0.1587,0.6418 -2.3587,0.6146 -2.2,-0.027 -2.9386,-0.3259 -1.6413,-0.664 z m -180.69203,-1.2924 c 0.91667,-0.3699 2.41667,-0.3699 3.33333,0 0.91667,0.3699 0.16667,0.6725 -1.66666,0.6725 -1.83334,0 -2.58334,-0.3026 -1.66667,-0.6725 z m 196.00003,0 c 0.9166,-0.3699 2.4166,-0.3699 3.3333,0 0.9167,0.3699 0.1667,0.6725 -1.6667,0.6725 -1.8333,0 -2.5833,-0.3026 -1.6666,-0.6725 z m -207.9167,-1.3611 c 0.9625,-0.3852 2.1125,-0.3378 2.55556,0.1053 0.44305,0.443 -0.34445,0.7581 -1.75,0.7003 -1.55326,-0.064 -1.8692,-0.38 -0.80556,-0.8056 z m 221.3333,0 c 0.9625,-0.3852 2.1125,-0.3378 2.5556,0.1053 0.4431,0.443 -0.3444,0.7581 -1.75,0.7003 -1.5533,-0.064 -1.8692,-0.38 -0.8056,-0.8056 z m -233.41663,-1.3056 c 0.91667,-0.3698 2.41667,-0.3698 3.33333,0 0.91667,0.3699 0.16667,0.6726 -1.66666,0.6726 -1.83334,0 -2.58334,-0.3027 -1.66667,-0.6726 z m 245.41663,-0.028 c 0.9625,-0.3852 2.1125,-0.3378 2.5556,0.1052 0.4431,0.4431 -0.3444,0.7582 -1.75,0.7003 -1.5533,-0.064 -1.8692,-0.3799 -0.8056,-0.8055 z m -255.99996,-1.3334 c 0.9625,-0.3851 2.1125,-0.3378 2.55555,0.1053 0.44306,0.443 -0.34444,0.7582 -1.75,0.7003 -1.55326,-0.064 -1.8692,-0.3799 -0.80555,-0.8056 z m 266.66666,0 c 0.9625,-0.3851 2.1125,-0.3378 2.5556,0.1053 0.443,0.443 -0.3445,0.7582 -1.75,0.7003 -1.5533,-0.064 -1.8692,-0.3799 -0.8056,-0.8056 z m -276,-1.3333 c 0.9625,-0.3852 2.1125,-0.3378 2.55556,0.1053 0.44305,0.443 -0.34445,0.7581 -1.75,0.7003 -1.55326,-0.064 -1.8692,-0.38 -0.80556,-0.8056 z m -9.33333,-1.3333 c 0.9625,-0.3852 2.1125,-0.3378 2.55555,0.1052 0.44306,0.4431 -0.34444,0.7582 -1.75,0.7003 -1.55325,-0.064 -1.8692,-0.3799 -0.80555,-0.8055 z m 329.33333,-4 c 0.9625,-0.3852 2.1125,-0.3378 2.5556,0.1052 0.443,0.4431 -0.3445,0.7582 -1.75,0.7003 -1.5533,-0.064 -1.8692,-0.3799 -0.8056,-0.8055 z m -672.443,-112.2602 c -0.71886,-0.6885 -10.30701,-6.4979 -21.30701,-12.9099 -67.45271,-39.3187 -132.38959,-88.6033 -192.61043,-146.1838 l -17.94375,-17.157 99.49413,-99.6225 99.49413,-99.6225 10.44962,8.3678 c 20.7086,16.5829 54.13155,38.4406 80.11499,52.3929 6.04927,3.2483 10.99927,6.4559 11,7.1279 7.2e-4,0.6721 -2.64999,9.6721 -5.89046,20 -26.41505,84.189 -45.8799,173.5835 -59.18605,271.8184 -1.49531,11.0394 -2.76844,16.5996 -3.61517,15.7887 z M 1672.2125,845.82517 c -2.4149,-4.89699 -8.9299,-16.46096 -14.4778,-25.69771 -25.8375,-43.01659 -56.9533,-83.20853 -92.0947,-118.95772 l -13.9227,-14.16361 3.4824,-19.16972 c 4.7915,-26.3749 7.0351,-44.48309 8.9005,-71.83639 2.0957,-30.72942 0.3728,-81.53553 -3.5042,-103.33333 -0.6757,-3.79872 4.0603,-8.76378 94.1141,-98.66667 l 94.8256,-94.66667 15.9811,16.66666 c 55.0358,57.39694 106.7091,125.76282 146.1279,193.33334 12.2738,21.0394 32.9767,59.71524 36.2862,67.78742 l 1.8261,4.45408 -136.577,136.57697 -136.577,136.57696 z"
       id="path4"
       sodipodi:nodetypes="sssssssssssssccscccsscccssccssssssssssssssssssssssssssssssssssssssssssssssscccssssssssscsssscssscccs" />
    <path
       style="fill:#ec8795"
       d="M 0.63210623,1065.9457 C -1.5144044,1023.4021 1.6767036,952.90976 8.0839168,901.33337 49.692522,566.39495 254.2499,272.01182 554.00002,115.69321 675.54199,52.309505 803.5077,15.493888 944.6667,3.2987601 c 28.36148,-2.45022881 104.9979,-3.90720475 124,-2.35743125 L 1082,2.028767 865.51222,218.9336 649.02441,435.83844 l -4.97112,-3.13813 c -2.73412,-1.72597 -12.26635,-6.79512 -21.18273,-11.26477 -49.17617,-24.65125 -105.64033,-39.73114 -162.87939,-43.50019 -22.29951,-1.46837 -36.42282,3.39382 -48.30409,16.62952 -7.78308,8.67031 -11.21395,16.13582 -14.19413,30.88613 -4.98686,24.68231 -6.1577,39.53223 -6.03549,76.54902 0.12722,38.53017 2.93849,74.35052 9.31325,118.66667 3.25471,22.62609 8.0803,51.22126 9.39971,55.70016 0.4115,1.39691 0.0622,2.21651 -0.85235,2 -0.85226,-0.20175 -92.92883,91.40873 -204.61459,203.57884 L 1.6384525,1085.8914 Z"
       id="path19" />
    <path
       style="fill:#232639"
       d="m 987.33337,2057.8224 c -150.8645,-6.3283 -292.7754,-43.4301 -426.33335,-111.4624 -24.82313,-12.6445 -29,-15.2047 -29,-17.7755 0,-1.6519 1.4739,-13.1092 3.27533,-25.4606 14.71122,-100.8669 31.7129,-177.7156 57.49957,-259.9019 3.24047,-10.3279 5.89118,-19.3279 5.89046,-20 -7.3e-4,-0.672 -4.95073,-3.8796 -11,-7.1279 -72.77026,-39.0755 -136.26057,-94.2257 -180.65447,-156.9237 -40.81212,-57.6394 -69.33682,-127.5841 -81.56346,-199.9998 -18.62367,-110.3041 -7.88796,-233.3788 29.81821,-341.83723 17.17292,-49.39637 41.80537,-99.31462 66.84463,-135.4622 l 8.4016,-12.12886 -4.64661,-19.20447 C 403.56599,658.37451 391.69054,572.5947 391.45746,502.00002 c -0.12221,-37.01679 1.04863,-51.86671 6.03549,-76.54902 2.98018,-14.75031 6.41105,-22.21582 14.19413,-30.88613 11.88127,-13.2357 26.00458,-18.09789 48.30409,-16.62952 56.60714,3.72744 113.51913,18.81748 161.68,42.86896 42.63725,21.29299 76.47646,46.4876 113.51313,84.51494 l 19.85093,20.38192 23.4824,-7.53581 c 38.39859,-12.3226 69.30089,-19.66213 109.76252,-26.0694 104.71894,-16.5827 220.75185,-12.86557 311.67085,9.98443 10.3923,2.61181 19.385,4.56219 19.9839,4.33419 0.5988,-0.22801 5.914,-6.62768 11.8116,-14.2215 56.272,-72.45754 122.018,-117.05491 211.9343,-143.76102 18.3168,-5.4403 22.5969,-6.24395 33.6526,-6.31879 11.1,-0.0751 13.6291,0.36342 20.4479,3.54583 16.0781,7.50385 22.272,14.68784 32.8198,38.06555 13.416,29.73471 22.7651,62.56813 28.5781,100.36467 9.1813,59.69669 7.9119,118.33798 -3.9775,183.74709 l -3.4844,19.16972 13.9227,14.16361 c 113.6291,115.59452 174.4706,262.25681 169.876,409.49696 -1.5307,49.0556 -7.6711,88.9844 -20.4019,132.6667 -26.1156,89.6088 -73.0215,169.2721 -140.3556,238.3752 -37.2,38.1773 -70.3294,65.3643 -114.0918,93.6272 -8.8,5.6833 -16.213,10.5208 -16.4734,10.75 -0.2604,0.2292 1.3676,9.9036 3.6178,21.4988 19.5818,100.9062 31.5055,209.9855 35.345,323.3402 l 0.6636,19.5914 -15.5765,7.5293 c -111.7249,54.0047 -233.6418,86.6845 -362.9098,97.2779 -24.3101,1.9922 -94.5967,3.4807 -118.00003,2.499 z"
       id="path2"
       sodipodi:nodetypes="ssssssssssscssssssscsssscsssssscsssssssscsss" />
    <path
       style="fill:#c9d1f3"
       d="m 1151.0661,1261.3144 c -21.9434,-3.0213 -46.0937,-15.406 -63.6633,-32.6477 -11.7009,-11.4825 -17.1666,-20.7075 -16.4766,-27.8092 0.3616,-3.7213 0.93,-4.2405 5.0738,-4.6343 6.538,-0.6215 12.9025,1.5583 27.0647,9.2693 22.4697,12.2342 35.245,14.7356 57.8337,11.3238 29.1518,-4.4032 40.8606,-11.3449 65.2802,-38.7022 8.1237,-9.1009 8.2176,-9.1579 14,-8.4945 3.6908,0.4235 9.4814,2.891 15.8214,6.7418 18.8995,11.4793 34.8867,14.4187 52.9561,9.7364 18.7713,-4.8641 27.4761,-10.6324 38.4612,-25.4864 8.1887,-11.0729 14.4947,-16.8173 17.2855,-15.7463 3.0033,1.1524 2.4316,14.2303 -1.0705,24.4872 -8.1483,23.8647 -26.6033,46.0885 -46.2989,55.7537 -17.9985,8.8323 -31.6329,9.6515 -56.0308,3.3665 -12.6209,-3.2513 -17.9885,-1.6863 -32.6901,9.531 -6.2538,4.7717 -15.5252,10.768 -20.6029,13.3251 -17.1417,8.6324 -38.9707,12.4604 -56.9435,9.9858 z m 60.1333,-137.7902 c -11.0938,-3.6357 -27.9962,-13.9213 -49.5854,-30.1744 -26.4271,-19.8952 -29.703,-23.8539 -30.534,-36.8983 -0.4486,-7.042 -0.03,-10.1807 1.8363,-13.7848 4.4185,-8.5307 5.0928,-8.6443 78.6962,-13.2599 75.0782,-4.708 71.8286,-4.9121 77.9255,4.8942 2.5612,4.1196 3.1287,6.856 3.1287,15.0865 v 10.0541 l -8.5624,12.6126 c -26.6166,39.2067 -40.6226,51.8373 -58.5374,52.7889 -5.1702,0.2747 -11.1915,-0.2781 -14.3675,-1.3189 z M 780.39744,953.63548 c -1.61476,-0.25893 -4.76476,-2.55371 -7,-5.09951 -4.72573,-5.38231 -5.23505,-11.46079 -2.17121,-25.91272 13.93437,-65.72769 65.5297,-117.85178 127.37747,-128.68287 13.47069,-2.35906 40.54588,-2.67681 52.28924,-0.61367 33.00336,5.79823 62.33976,21.30471 87.07796,46.02727 19.7371,19.72453 35.728,45.43974 43.9079,70.60907 4.8484,14.91842 4.627,20.60399 -1.0362,26.60872 -3.8819,4.116 -5.3205,4.7616 -10.6105,4.7616 -5.8464,0 -6.7587,-0.56934 -20.4259,-12.74712 -27.0913,-24.13897 -48.5327,-35.87549 -81.80616,-44.7788 -9.90629,-2.65073 -14.60715,-3.03939 -37.33334,-3.08666 -20.99704,-0.0437 -27.92421,0.42269 -36,2.42367 -37.46942,9.28401 -68.7659,28.37168 -91.86671,56.02933 -5.2081,6.23545 -10.08822,11.71971 -10.84471,12.18724 -2.51998,1.55743 -8.58553,2.75106 -11.55784,2.27445 z m 462.22646,-42.61866 c -3.933,-3.51407 -4.4032,-4.67171 -4.258,-10.48353 0.1959,-7.84737 5.5179,-26.7282 10.8466,-38.48038 9.4366,-20.8119 29.7802,-44.98812 48.3274,-57.43194 53.6122,-35.9699 123.8139,-31.26782 172.6735,11.56562 17.7793,15.58642 31.9741,35.98137 40.2044,57.7654 6.6404,17.57578 5.8347,24.40732 -3.3298,28.23653 -6.8769,2.87333 -10.7806,1.37973 -21.8374,-8.35515 -29.4754,-25.95139 -60.3548,-38.57521 -98.0815,-40.09675 -22.9095,-0.92395 -36.1444,0.77697 -55.169,7.09021 -25.5926,8.49277 -44.4462,20.6494 -63.2082,40.75603 -9.6664,10.35921 -11.8747,12.06009 -16.4558,12.67454 -4.5206,0.60634 -5.9349,0.13443 -9.7122,-3.24058 z"
       id="path9"
       sodipodi:nodetypes="ssssssssssssssssssssscssscssssssssssssssssssssssssssssssss" />
    <path
       style="fill:#ee99a0"
       d="m 1092.456,1806.4818 c -6.8052,-7.4462 -20.104,-38.4957 -26.2075,-61.1883 -8.4446,-31.3964 -10.6978,-73.2257 -5.7077,-105.9601 2.5735,-16.8819 4.52,-22.3801 8.7187,-24.6271 4.2492,-2.2741 7.9694,-1.6423 28.1111,4.7743 44.2265,14.0892 78.4853,30.5778 105.098,50.5828 l 8.0806,6.0744 5.0136,-5.7355 c 18.5042,-21.169 41.9729,-37.0023 69.5167,-46.9 19.3422,-6.9505 23.8382,-4.574 29.0582,15.3595 10.1063,38.5928 11.8526,77.0439 5.0538,111.2779 -2.6314,13.2501 -6.1986,18.6365 -13.2138,19.9525 -10.4068,1.9524 -56.8753,-17.3054 -80.1384,-33.2113 l -10.8273,-7.4032 -3.5639,6.5481 c -9.4809,17.4195 -30.6482,39.1351 -50.8719,52.1896 -16.7698,10.825 -40.2077,19.6037 -55.2428,20.6914 -9.2809,0.6714 -10.2069,0.497 -12.8774,-2.425 z"
       id="path3" />
  </g>
</svg>
